<?xml version="1.0" encoding="utf-8"?>
<!-- Generator: Adobe Illustrator 24.1.0, SVG Export Plug-In . SVG Version: 6.00 Build 0)  -->
<svg version="1.1" id="Single_Line_DBA_-_Editable" xmlns="http://www.w3.org/2000/svg" xmlns:xlink="http://www.w3.org/1999/xlink"
	 x="0px" y="0px" viewBox="0 0 792 612" style="enable-background:new 0 0 792 612;" xml:space="preserve">
<style type="text/css">
	.st0{display:none;fill:#14377D;}
	.st1{font-family:'Geometos';}
	.st2{font-size:43.9069px;}
	.st3{fill:#14377D;}
	.st4{fill:#FFFFFF;}
</style>
<text id="DBA_Name" transform="matrix(1 0 0 1 321.9956 421.7861)" class="st0 st1 st2">CAINE</text>
<g id="Logo">
	<g>
		<polygon class="st3" points="139.04,369.36 127.49,369.36 127.49,424.96 167.83,424.96 167.83,414.6 139.04,414.6 		"/>
		<polygon class="st3" points="274.15,398.43 260.74,369.44 259.34,369.44 245.93,398.35 235.63,369.44 223.33,369.44 243.7,424.66 
			243.83,425.03 245.56,425.03 260.07,394.04 274.45,424.96 276.24,424.96 296.98,369.44 284.68,369.44 		"/>
		<polygon class="st3" points="302.03,424.96 343.27,424.96 343.27,414.45 313.58,414.45 313.58,402.79 339.92,402.79 339.92,392.2 
			313.58,392.2 313.58,379.72 343.27,379.72 343.27,369.36 302.03,369.36 		"/>
		<polygon class="st3" points="364.15,369.36 352.6,369.36 352.6,424.96 392.95,424.96 392.95,414.6 364.15,414.6 		"/>
		<polygon class="st3" points="409.73,369.36 398.18,369.36 398.18,424.96 438.52,424.96 438.52,414.6 409.73,414.6 		"/>
		<g>
			<path class="st3" d="M498.76,385.29c0,0.73-0.13,1.49-0.38,2.25c-0.25,0.76-0.62,1.44-1.1,2.03c-0.47,0.58-1.06,1.06-1.75,1.42
				c-0.68,0.36-1.51,0.54-2.45,0.54h-12.23v-11.81h12.98c0.65,0,1.27,0.15,1.86,0.46c0.6,0.32,1.14,0.73,1.59,1.22
				c0.45,0.5,0.81,1.1,1.08,1.78C498.62,383.86,498.76,384.57,498.76,385.29 M500.99,407.8c0,0.81-0.16,1.63-0.48,2.43
				c-0.33,0.81-0.77,1.56-1.32,2.23c-0.55,0.66-1.19,1.19-1.91,1.57c-0.71,0.38-1.47,0.57-2.26,0.57h-14.17v-12.71h13.05
				c2.22,0,3.98,0.58,5.24,1.71C500.38,404.75,500.99,406.12,500.99,407.8 M508.82,399.3c-1.08-1.18-2.33-2.14-3.7-2.83
				c-0.52-0.26-1.05-0.49-1.58-0.67c0.42-0.18,0.83-0.4,1.23-0.66c1.14-0.75,2.13-1.69,2.93-2.79c0.8-1.08,1.44-2.29,1.9-3.58
				c0.47-1.3,0.7-2.54,0.7-3.7c0-3.15-0.44-5.77-1.31-7.8c-0.88-2.04-2.09-3.68-3.6-4.85c-1.5-1.17-3.28-1.98-5.29-2.42
				c-1.97-0.43-4.09-0.65-6.3-0.65h-24.52v55.6h25.71c2.37,0,4.63-0.28,6.73-0.84c2.13-0.56,4.02-1.51,5.61-2.82
				c1.6-1.31,2.88-3.06,3.81-5.18c0.92-2.12,1.38-4.73,1.38-7.76c0-1.76-0.35-3.43-1.05-4.98
				C510.79,401.85,509.9,400.48,508.82,399.3"/>
		</g>
		<path class="st3" d="M549.77,406.19h-13.76l6.91-14.55L549.77,406.19z M542.06,369.44l-28.41,55.52h12.59l4.17-8.56h24.96
			l4.24,8.56h12.59l-28.41-55.52H542.06z"/>
		<polygon class="st3" points="613.88,401.6 579.04,369.59 578.88,369.44 576.97,369.44 576.97,424.96 588.52,424.96 588.52,393.3 
			623.53,424.96 625.43,424.96 625.43,369.44 613.88,369.44 		"/>
		<polygon class="st3" points="683.07,369.44 668.82,369.44 648.01,395.97 648.01,369.36 636.47,369.36 636.47,424.96 
			648.01,424.96 648.01,401.06 670.04,424.96 685.36,424.96 660.25,398.1 		"/>
		<polygon class="st3" points="690.33,424.96 731.56,424.96 731.56,414.45 701.87,414.45 701.87,402.79 728.21,402.79 728.21,392.2 
			701.87,392.2 701.87,379.72 731.56,379.72 731.56,369.36 690.33,369.36 		"/>
		<path class="st3" d="M771.43,395.15c-0.73,0.71-1.57,1.24-2.51,1.59c-0.95,0.35-1.87,0.52-2.73,0.52h-13.75v-17.54h13.75
			c1.71,0,3.08,0.32,4.07,0.95c1.01,0.64,1.79,1.43,2.34,2.34c0.56,0.93,0.93,1.92,1.12,2.93c0.19,1.06,0.29,1.97,0.29,2.73
			c0,1.45-0.25,2.72-0.73,3.78C772.79,393.53,772.17,394.44,771.43,395.15 M752.44,407.62h9.45c2.03,2.9,4.07,5.77,6.07,8.54
			c2.08,2.88,4.23,5.77,6.39,8.57l0.17,0.22h13.81l-0.65-0.9c-4.3-5.93-8.72-11.89-13.13-17.73c3.21-1.4,5.83-3.6,7.81-6.55
			c2.12-3.16,3.19-6.89,3.19-11.1c0-2.78-0.48-5.39-1.42-7.76c-0.94-2.37-2.28-4.43-3.96-6.14c-1.69-1.71-3.74-3.05-6.12-4
			c-2.37-0.94-5.01-1.42-7.85-1.42H740.9v55.6h11.55V407.62z"/>
		<path class="st3" d="M53.87,377.16c-1.76-1.79-3.74-3.34-5.88-4.63c-2.14-1.28-4.49-2.29-6.98-3c-2.49-0.71-5.11-1.06-7.78-1.06
			c-3.93,0-7.68,0.77-11.16,2.28c-3.47,1.51-6.55,3.59-9.14,6.18c-2.59,2.59-4.67,5.67-6.18,9.14c-1.51,3.48-2.28,7.23-2.28,11.16
			c0,3.93,0.77,7.69,2.28,11.16c1.51,3.47,3.59,6.55,6.18,9.14c2.59,2.59,5.67,4.67,9.14,6.18c3.48,1.51,7.24,2.28,11.16,2.28
			c2.67,0,5.29-0.36,7.78-1.06c2.49-0.7,4.84-1.71,6.98-3c2.14-1.28,4.12-2.84,5.88-4.63c1.76-1.79,3.27-3.82,4.48-6.04l0.3-0.56
			l-10.76-4.35l-0.26,0.38c-0.77,1.16-1.69,2.27-2.72,3.3c-1.03,1.03-2.18,1.94-3.43,2.71c-1.25,0.77-2.58,1.37-3.96,1.8
			c-1.38,0.43-2.82,0.64-4.3,0.64c-2.38,0-4.64-0.49-6.72-1.47c-2.08-0.98-3.92-2.31-5.45-3.93c-1.53-1.63-2.77-3.55-3.68-5.71
			c-0.91-2.15-1.37-4.45-1.37-6.85c0-2.34,0.46-4.64,1.37-6.81c0.91-2.18,2.15-4.11,3.68-5.74c1.53-1.63,3.36-2.95,5.45-3.93
			c2.07-0.98,4.33-1.47,6.72-1.47c1.47,0,2.92,0.22,4.3,0.64c1.38,0.43,2.71,1.03,3.96,1.8c1.25,0.77,2.4,1.67,3.43,2.68
			c1.03,1.01,1.95,2.11,2.72,3.26l0.26,0.38l10.77-4.36l-0.31-0.56C57.14,380.95,55.64,378.95,53.87,377.16"/>
		<path class="st3" d="M107.86,397.16c0,2.39-0.46,4.7-1.37,6.85c-0.91,2.16-2.16,4.09-3.71,5.75c-1.55,1.65-3.4,2.99-5.47,3.97
			c-2.07,0.98-4.32,1.47-6.7,1.47c-2.38,0-4.63-0.49-6.7-1.47c-2.08-0.98-3.92-2.32-5.47-3.97c-1.55-1.65-2.8-3.59-3.71-5.75
			c-0.91-2.15-1.37-4.46-1.37-6.85c0-2.34,0.46-4.64,1.37-6.81c0.91-2.18,2.16-4.12,3.71-5.74c1.55-1.63,3.4-2.95,5.48-3.93
			c2.07-0.98,4.32-1.47,6.7-1.47c2.38,0,4.63,0.49,6.7,1.47c2.08,0.98,3.92,2.31,5.48,3.93c1.55,1.63,2.8,3.56,3.71,5.74
			C107.4,392.53,107.86,394.82,107.86,397.16 M110.95,376.78c-2.59-2.59-5.67-4.67-9.14-6.18c-3.48-1.51-7.26-2.28-11.24-2.28
			c-3.93,0-7.69,0.77-11.16,2.28c-3.47,1.51-6.55,3.59-9.14,6.18c-2.59,2.6-4.67,5.68-6.18,9.18c-1.51,3.5-2.28,7.27-2.28,11.2
			c0,3.98,0.77,7.76,2.28,11.24c1.51,3.47,3.59,6.55,6.18,9.14c2.59,2.59,5.66,4.67,9.14,6.18c3.48,1.51,7.24,2.28,11.16,2.28
			c3.98,0,7.76-0.77,11.24-2.28c3.47-1.51,6.55-3.59,9.14-6.18c2.59-2.59,4.67-5.67,6.18-9.14c1.51-3.48,2.28-7.26,2.28-11.24
			c0-3.93-0.77-7.7-2.28-11.2C115.63,382.47,113.55,379.38,110.95,376.78"/>
		<path class="st3" d="M211.39,397.23c0,3.67-0.51,6.67-1.51,8.92c-1,2.24-2.29,4.01-3.82,5.26c-1.53,1.25-3.27,2.1-5.16,2.53
			c-1.93,0.44-3.87,0.66-5.75,0.66h-10.52v-34.73h10.52c1.83,0,3.74,0.22,5.68,0.66c1.89,0.42,3.64,1.26,5.2,2.5
			c1.56,1.23,2.85,2.99,3.85,5.25C210.88,390.55,211.39,393.56,211.39,397.23 M214.65,376.36c-5.09-4.64-11.67-6.99-19.55-6.99
			h-22.04v55.6h22.04c3.91,0,7.56-0.59,10.85-1.74c3.3-1.16,6.23-2.9,8.7-5.18c2.72-2.48,4.81-5.51,6.2-9.03
			c1.38-3.5,2.08-7.49,2.08-11.85c0-4.32-0.7-8.28-2.08-11.78C219.46,381.87,217.38,378.83,214.65,376.36"/>
	</g>
	<g>
		<rect x="267.61" y="78" class="st3" width="257.57" height="257.57"/>
		<path class="st4" d="M281.37,321.81h230.06V91.76H281.37V321.81z M514.05,324.44H278.74V89.13h235.31V324.44z"/>
		<polygon class="st4" points="427.97,165.63 446.04,153.57 464.1,165.63 458.22,144.72 475.27,131.26 453.56,130.4 446.04,110.03 
			438.51,130.4 416.81,131.26 433.86,144.72 		"/>
		<g>
			<path class="st4" d="M460.13,242.92c-3.01-4.1-6.83-7.3-11.41-9.54c3.34-2.36,6.08-5.35,8.19-8.93
				c3.07-5.22,4.63-10.98,4.63-17.12c0-3.82-0.67-7.67-2-11.43c-1.34-3.77-3.25-7.18-5.69-10.14c-2.46-3-5.5-5.47-9.01-7.34
				c-3.6-1.92-7.65-2.89-12.05-2.89h-59.44v53.73c-5.88,0.31-11.42-0.79-16.33-3.29c-2.54-1.3-4.85-2.93-7.02-4.75
				c-1.66-1.4-3.26-2.87-4.68-4.56c-3.32-3.91-5.94-8.48-7.8-13.56c-1.86-5.09-2.81-10.53-2.81-16.18c0-5.07,0.79-10.17,2.37-15.18
				c1.55-4.96,3.91-9.48,7.02-13.44c3.07-3.92,6.93-7.14,11.45-9.57c6.51-3.5,14.86-4.61,23.78-2.71c2.74,0.58,5.45,1.58,8.05,2.95
				c2.59,1.37,5.02,3.21,7.21,5.45c2.18,2.24,4.1,5.07,5.68,8.42l1.33,2.81l16.01-10.38l-1.03-2.15
				c-3.74-7.82-9.54-14.25-17.22-19.12c-7.7-4.86-17-7.33-27.65-7.33c-8.94,0-17.08,1.77-24.18,5.26
				c-7.04,3.47-13.09,8.09-17.97,13.76c-4.86,5.65-8.6,12.11-11.11,19.19c-2.5,7.07-3.77,14.26-3.77,21.39
				c0,7.57,1.38,15.11,4.1,22.4c2.73,7.29,6.62,13.89,11.58,19.63c4.97,5.74,10.94,10.47,17.74,14.04c0.62,0.33,1.28,0.56,1.91,0.86
				c0.4,0.19,0.8,0.37,1.21,0.55c1.21,0.53,2.45,1.01,3.7,1.44c0.84,0.29,1.68,0.55,2.54,0.79c1.28,0.36,2.58,0.67,3.9,0.92
				c0.88,0.17,1.77,0.32,2.66,0.44c2.24,0.31,4.53,0.46,6.87,0.46c0.8,0,1.64-0.02,2.45-0.05c3.82-0.18,7.74-0.79,11.72-1.8
				c4.8-1.22,9.41-3.04,13.72-5.39c1.62-0.88,3.19-1.85,4.7-2.89c1.01-0.7,1.98-1.43,2.93-2.19c1.43-1.15,2.79-2.37,4.08-3.66
				c0.87-0.87,1.7-1.79,2.48-2.73c0.78-0.95,1.51-1.93,2.2-2.95c1.37-2.04,2.55-4.22,3.53-6.51l0.7-1.81l-1.71-1.53l0.03-0.01
				l-12.3-11.3c0,0-1.26,2.9-1.95,4.22c-0.69,1.32-2.14,3.65-3.15,4.97c-1.46,1.92-2.68,3.38-4.27,4.98
				c-0.9,0.9-1.86,1.69-2.81,2.47v-28.14h34.57c1.98,0,3.79,0.39,5.53,1.2c1.72,0.79,3.19,1.9,4.37,3.3
				c1.23,1.47,2.23,3.25,2.98,5.29c0.75,2.05,1.12,4.28,1.12,6.63c0,2.21-0.4,4.34-1.18,6.31c-0.79,1.99-1.86,3.74-3.18,5.2
				c-1.33,1.46-2.86,2.6-4.71,3.47c-1.75,0.84-3.73,1.26-5.9,1.26h-5.21c-0.59,1.05-1.21,2.09-1.88,3.08
				c-1.57,2.32-3.36,4.51-5.35,6.5c-2.61,2.61-5.5,4.97-8.58,7.03c-0.51,0.34-0.29,0.54-0.03,0.54h1.69h23.86
				c2.12,0,4.1,0.45,5.86,1.33c1.81,0.9,3.39,2.14,4.69,3.67c1.34,1.57,2.42,3.44,3.23,5.54c0.79,2.1,1.19,4.29,1.19,6.52
				c0,2.2-0.42,4.34-1.24,6.37c-0.82,2.01-1.98,3.8-3.45,5.32c-1.49,1.53-3.23,2.77-5.17,3.7c-1.86,0.9-3.96,1.34-6.22,1.34h-36.98
				v-27.95c-2.23,0.84-4.5,1.56-6.82,2.15c-4.04,1.03-8.24,1.64-12.81,1.86c-0.08,0-0.17,0.01-0.26,0.02v41.88h56.87
				c4.89,0,9.54-0.75,13.82-2.24c4.32-1.49,8.17-3.66,11.47-6.43c3.32-2.8,5.99-6.24,7.92-10.21c1.94-3.99,2.93-8.45,2.93-13.24
				C466.36,255.3,464.26,248.57,460.13,242.92"/>
		</g>
	</g>
</g>
</svg>
