<?xml version="1.0" encoding="UTF-8" standalone="no"?>
<!-- Created with Inkscape (http://www.inkscape.org/) -->

<svg
   xmlns:dc="http://purl.org/dc/elements/1.1/"
   xmlns:cc="http://creativecommons.org/ns#"
   xmlns:rdf="http://www.w3.org/1999/02/22-rdf-syntax-ns#"
   xmlns:svg="http://www.w3.org/2000/svg"
   xmlns="http://www.w3.org/2000/svg"
   xmlns:sodipodi="http://sodipodi.sourceforge.net/DTD/sodipodi-0.dtd"
   xmlns:inkscape="http://www.inkscape.org/namespaces/inkscape"
   width="251.99998"
   height="134.93835"
   viewBox="0 0 66.674994 35.702437"
   version="1.1"
   id="svg739"
   inkscape:version="0.92.0 r15299"
   sodipodi:docname="farmers_ins_logo2.svg">
  <defs
     id="defs733" />
  <sodipodi:namedview
     id="base"
     pagecolor="#ffffff"
     bordercolor="#666666"
     borderopacity="1.0"
     inkscape:pageopacity="0.0"
     inkscape:pageshadow="2"
     inkscape:zoom="3.208"
     inkscape:cx="125"
     inkscape:cy="66.469175"
     inkscape:document-units="mm"
     inkscape:current-layer="layer1"
     showgrid="false"
     fit-margin-top="0"
     fit-margin-left="0"
     fit-margin-right="0"
     fit-margin-bottom="0"
     units="px"
     inkscape:window-width="1280"
     inkscape:window-height="744"
     inkscape:window-x="-4"
     inkscape:window-y="-4"
     inkscape:window-maximized="1" />
  <metadata
     id="metadata736">
    <rdf:RDF>
      <cc:Work
         rdf:about="">
        <dc:format>image/svg+xml</dc:format>
        <dc:type
           rdf:resource="http://purl.org/dc/dcmitype/StillImage" />
        <dc:title></dc:title>
      </cc:Work>
    </rdf:RDF>
  </metadata>
  <g
     inkscape:label="Layer 1"
     inkscape:groupmode="layer"
     id="layer1"
     transform="translate(220.58708,-167.25776)">
    <g
       id="g881"
       transform="translate(0.26458298,-0.26456519)">
      <path
         inkscape:connector-curvature="0"
         id="path14"
         style="fill:#1c428b;fill-opacity:1;fill-rule:nonzero;stroke:none;stroke-width:0.03527778"
         d="m -184.89337,194.30828 -0.29873,-4.98347 -2.17316,4.98347 h -0.73817 l -2.18479,-4.98347 -0.33395,4.98347 h -1.5238 l 0.59225,-7.80383 h 1.5924 l 2.30361,5.13827 2.21879,-5.13827 h 1.56055 l 0.59209,7.80383 h -1.60709" />
      <path
         inkscape:connector-curvature="0"
         id="path16"
         style="fill:#1c428b;fill-opacity:1;fill-rule:nonzero;stroke:none;stroke-width:0.03527778"
         d="m -220.58708,194.30828 v -7.80383 h 5.47954 l -0.40462,1.29578 h -3.45095 v 2.03818 h 3.19563 v 1.28903 h -3.19563 v 3.18084 h -1.62397" />
      <path
         inkscape:connector-curvature="0"
         id="path18"
         style="fill:#1c428b;fill-opacity:1;fill-rule:nonzero;stroke:none;stroke-width:0.03527778"
         d="m -179.11726,194.30828 v -7.80383 h 5.25276 l -0.40437,1.29568 h -3.22369 v 1.79478 h 3.18097 v 1.28952 h -3.18097 v 2.09158 h 3.53267 v 1.33227 h -5.15737" />
      <path
         inkscape:connector-curvature="0"
         id="path20"
         style="fill:#1c428b;fill-opacity:1;fill-rule:nonzero;stroke:none;stroke-width:0.03527778"
         d="m -208.30086,191.50442 -1.1654,-3.03777 -1.14956,3.03777 z m 1.00542,2.80386 -0.58764,-1.57774 h -3.14347 l -0.57986,1.57774 h -1.65424 l 3.09819,-7.80398 h 1.51769 l 3.13091,7.80398 h -1.78158" />
      <path
         inkscape:connector-curvature="0"
         id="path22"
         style="fill:#1c428b;fill-opacity:1;fill-rule:nonzero;stroke:none;stroke-width:0.03527778"
         d="m -167.15913,190.07465 c 1.03107,0 1.4549,-0.52195 1.4549,-1.15542 0,-0.63327 -0.42015,-1.15571 -1.44265,-1.15571 h -0.98958 v 2.31113 z m 1.84335,4.23394 -2.09308,-2.99927 h -0.7276 v 2.99927 h -1.63068 v -7.80399 h 2.77307 c 2.16611,0 2.92985,1.20837 2.92985,2.35399 0,1.03615 -0.62716,1.82924 -1.64568,2.18494 l 2.37849,3.26506 h -1.98437" />
      <path
         inkscape:connector-curvature="0"
         id="path24"
         style="fill:#1c428b;fill-opacity:1;fill-rule:nonzero;stroke:none;stroke-width:0.03527778"
         d="m -199.46425,190.07465 c 1.03107,0 1.45505,-0.52195 1.45505,-1.15542 0,-0.63327 -0.42015,-1.15571 -1.4425,-1.15571 h -0.98973 v 2.31113 z m 1.8435,4.23394 -2.09308,-2.99927 h -0.7276 v 2.99927 h -1.63052 v -7.80399 h 2.77306 c 2.16627,0 2.92986,1.20837 2.92986,2.35399 0,1.03615 -0.62686,1.82924 -1.64538,2.18494 l 2.37803,3.26506 h -1.98437" />
      <path
         inkscape:connector-curvature="0"
         id="path26"
         style="fill:#1c428b;fill-opacity:1;fill-rule:nonzero;stroke:none;stroke-width:0.03527778"
         d="m -157.37753,194.4297 c -1.04578,0 -1.91792,-0.24577 -2.91577,-0.89531 l 0.7201,-1.22492 c 0.76282,0.50929 1.33256,0.7587 2.19567,0.7587 0.85468,0 1.32536,-0.33852 1.32536,-0.91898 0,-0.54339 -0.52779,-0.76205 -0.83141,-0.87432 -0.30317,-0.1122 -1.01041,-0.37219 -1.50696,-0.5642 -1.01225,-0.39032 -1.52304,-1.08681 -1.52304,-2.05861 0,-1.04702 0.73756,-2.26918 2.81533,-2.26918 0.68748,0 1.54845,0.18113 2.10686,0.40637 v 1.51173 c -0.62532,-0.36581 -1.37666,-0.62952 -2.15479,-0.62952 -0.53911,0 -1.17975,0.16077 -1.17975,0.83485 0,0.5094 0.47313,0.72143 0.76144,0.83519 0.32185,0.12698 1.0369,0.38876 1.51584,0.56653 1.06262,0.39415 1.6074,1.08944 1.6074,2.07076 0,1.22 -0.90782,2.45091 -2.93628,2.45091" />
      <path
         inkscape:connector-curvature="0"
         id="path28"
         style="fill:#e11631;fill-opacity:1;fill-rule:nonzero;stroke:none;stroke-width:0.03527778"
         d="m -168.37395,202.89295 v -4.29194 h 2.90858 l -0.21222,0.66988 h -1.83049 v 1.04009 h 1.79941 v 0.67618 h -1.79941 v 1.21618 h 1.99815 v 0.68961 h -2.86402" />
      <path
         inkscape:connector-curvature="0"
         id="path30"
         style="fill:#e11631;fill-opacity:1;fill-rule:nonzero;stroke:none;stroke-width:0.03527778"
         d="m -209.56286,202.89295 v -4.29194 h 0.86557 v 4.29194 h -0.86557" />
      <path
         inkscape:connector-curvature="0"
         id="path32"
         style="fill:#e11631;fill-opacity:1;fill-rule:nonzero;stroke:none;stroke-width:0.03527778"
         d="m -203.63342,202.89295 -2.05372,-2.91761 v 2.91761 h -0.8176 v -4.29194 h 0.77006 l 2.01827,2.85804 v -2.85804 h 0.81717 v 4.29194 h -0.73418" />
      <path
         inkscape:connector-curvature="0"
         id="path34"
         style="fill:#e11631;fill-opacity:1;fill-rule:nonzero;stroke:none;stroke-width:0.03527778"
         d="m -176.71688,202.89295 -2.05495,-2.91761 v 2.91761 h -0.81702 v -4.29194 h 0.77016 l 2.01837,2.85804 v -2.85804 h 0.81702 v 4.29194 h -0.73358" />
      <path
         inkscape:connector-curvature="0"
         id="path36"
         style="fill:#e11631;fill-opacity:1;fill-rule:nonzero;stroke:none;stroke-width:0.03527778"
         d="m -193.25023,198.60101 h 0.8651 v 2.58913 c 0,0.57419 -0.089,0.96619 -0.38463,1.29 -0.28847,0.31807 -0.71382,0.47974 -1.35292,0.47974 -0.63191,0 -1.06461,-0.15509 -1.35293,-0.47974 -0.29505,-0.31723 -0.39105,-0.70887 -0.39105,-1.28342 v -2.59571 h 0.8654 v 2.63572 c 0,0.37203 0.0409,0.54111 0.17823,0.70338 0.14423,0.16873 0.37054,0.27011 0.69361,0.27011 0.32996,0 0.55611,-0.10138 0.70035,-0.27011 0.13749,-0.16227 0.17884,-0.33135 0.17884,-0.70338 v -2.63572" />
      <path
         inkscape:connector-curvature="0"
         id="path38"
         style="fill:#e11631;fill-opacity:1;fill-rule:nonzero;stroke:none;stroke-width:0.03527778"
         d="m -188.28701,199.39242 c -0.15128,-0.10161 -0.31572,-0.14163 -0.55657,-0.14163 h -0.49426 v 1.33767 h 0.48737 c 0.24774,0 0.41218,-0.0407 0.56346,-0.14212 0.15097,-0.10138 0.26106,-0.2972 0.26106,-0.52656 0,-0.22998 -0.11009,-0.4258 -0.26106,-0.52736 z m 0.44985,3.50053 -1.12356,-1.66943 h -0.37712 v 1.66943 h -0.86571 v -4.29194 h 1.45597 c 0.4399,0 0.83126,0.0879 1.09936,0.29061 0.28112,0.21616 0.48048,0.55505 0.48048,0.994 0,0.60834 -0.36411,1.02724 -0.89297,1.20255 l 1.2707,1.80478 h -1.04715" />
      <path
         inkscape:connector-curvature="0"
         id="path40"
         style="fill:#e11631;fill-opacity:1;fill-rule:nonzero;stroke:none;stroke-width:0.03527778"
         d="m -199.25188,198.533 c -1.1672,0 -1.56591,0.6837 -1.56591,1.23778 0,0.62837 0.4053,0.95314 0.84474,1.12175 0.11682,0.0473 0.67324,0.24283 0.84458,0.31084 0.1721,0.0675 0.49487,0.18923 0.49487,0.51365 0,0.32417 -0.26122,0.52705 -0.77599,0.52705 -0.51539,0 -0.85469,-0.16275 -1.23304,-0.41156 l -0.38079,0.64751 c 0.44342,0.28817 0.95497,0.48016 1.61383,0.48016 1.18786,0 1.63435,-0.72269 1.63435,-1.3376 0,-0.48033 -0.2407,-0.89208 -0.89266,-1.12862 -0.12387,-0.0476 -0.6734,-0.24344 -0.83111,-0.30438 -0.15817,-0.067 -0.47404,-0.18225 -0.47404,-0.49978 0,-0.31753 0.24743,-0.48034 0.69361,-0.48034 0.39381,0 0.80798,0.11669 1.19292,0.33165 v -0.79003 c -0.28097,-0.11072 -0.76359,-0.21808 -1.16536,-0.21808" />
      <path
         inkscape:connector-curvature="0"
         id="path42"
         style="fill:#e11631;fill-opacity:1;fill-rule:nonzero;stroke:none;stroke-width:0.03527778"
         d="m -171.87048,198.533 c -1.1381,0 -2.14407,0.79189 -2.14407,2.21102 0,1.41889 0.90277,2.21616 2.11008,2.21616 0.59715,0 1.09661,-0.15575 1.54003,-0.41568 l -0.32537,-0.70637 c -0.31986,0.22094 -0.69912,0.35175 -1.15311,0.35175 -0.76221,0 -1.29306,-0.58112 -1.29306,-1.45938 0,-0.87874 0.55137,-1.45333 1.30715,-1.45333 0.52488,0 0.93277,0.12907 1.28203,0.34109 v -0.85127 c -0.36931,-0.14301 -0.7495,-0.23399 -1.32368,-0.23399" />
      <path
         inkscape:connector-curvature="0"
         id="path44"
         style="fill:#e11631;fill-opacity:1;fill-rule:nonzero;stroke:none;stroke-width:0.03527778"
         d="m -184.0148,201.33177 0.62058,-1.7421 0.62976,1.7421 z m 1.79635,1.56118 h 0.92053 l -1.6711,-4.29194 h -0.78257 l -1.65318,4.29194 h 0.85131 l 0.30807,-0.87808 h 1.71443 l 0.31251,0.87808" />
      <path
         inkscape:connector-curvature="0"
         id="path46"
         style="fill:#ffffff;fill-opacity:1;fill-rule:nonzero;stroke:none;stroke-width:0.03527778"
         d="m -187.51837,167.78691 v 0 c -8.16915,0 -14.88309,6.67673 -14.88309,14.88354 v 0.70877 h 12.2714 c 0.72393,0.70984 1.58168,1.30286 2.61169,1.76281 v 0 c 1.02985,-0.45995 1.88744,-1.05297 2.61091,-1.76281 h 12.27186 v -0.70877 c 0,-8.20681 -6.71424,-14.88354 -14.88277,-14.88354" />
      <path
         inkscape:connector-curvature="0"
         id="path48"
         style="fill:#a20f30;fill-opacity:1;fill-rule:nonzero;stroke:none;stroke-width:0.03527778"
         d="m -187.51837,184.36008 c 3.20959,-1.55091 4.35474,-4.47877 4.50985,-7.91835 h -4.50985 v 7.91835" />
      <path
         inkscape:connector-curvature="0"
         id="path50"
         style="fill:#e11631;fill-opacity:1;fill-rule:nonzero;stroke:none;stroke-width:0.03527778"
         d="m -187.51837,184.36008 c -3.20991,-1.55091 -4.35521,-4.47877 -4.51016,-7.91835 h 4.51016 v 7.91835" />
      <path
         inkscape:connector-curvature="0"
         id="path52"
         style="fill:#a6c3e9;fill-opacity:1;fill-rule:nonzero;stroke:none;stroke-width:0.03527778"
         d="m -194.06343,182.66678 c -0.88761,-0.56729 -1.72989,-1.19843 -2.44279,-1.77185 -2.82635,0.76894 -5.18463,1.772 -5.18463,1.772 z m 20.71799,1.5e-4 c 0,0 -2.35736,-1.00306 -5.18493,-1.772 -0.71275,0.57342 -1.55504,1.20456 -2.44127,1.77185 z m -19.4678,-3.84778 c -0.38494,-0.98223 -0.69606,-1.98759 -0.93523,-2.8706 -2.71749,-1.03046 -5.23301,-1.61398 -5.23301,-1.61398 -3.1e-4,1.5e-4 1.31878,2.19888 3.15233,4.48075 0.91272,-0.0439 1.96492,-0.0586 3.01591,0.004 z m 10.5905,0 c 1.05144,-0.0625 2.10365,-0.0478 3.01637,-0.004 1.83386,-2.28187 3.15279,-4.4806 3.15263,-4.48075 0,0 -2.51675,0.58352 -5.23285,1.61398 -0.2407,0.88301 -0.55061,1.88837 -0.93615,2.8706 z m -3.27207,-2.37788 c 0.81396,-0.66865 1.67279,-1.27606 2.43759,-1.77582 0.14225,-2.92588 -0.0818,-5.47999 -0.0818,-5.47999 0,0 -1.69207,1.94808 -3.28585,4.3843 0.32553,0.85346 0.66437,1.85116 0.93002,2.87151 z m -6.40112,-7.25581 c 0,0 1.69177,1.94808 3.28539,4.3843 -0.32537,0.85346 -0.66406,1.85116 -0.92987,2.87151 -0.81396,-0.66865 -1.67416,-1.27606 -2.43897,-1.77582 -0.14102,-2.92588 0.0834,-5.47999 0.0834,-5.47999" />
      <path
         inkscape:connector-curvature="0"
         id="path54"
         style="fill:#1c428b;fill-opacity:1;fill-rule:nonzero;stroke:none;stroke-width:0.03527778"
         d="m -173.34544,182.66693 c -9.2e-4,-3.11528 -1.00489,-5.9943 -2.70799,-8.33145 -0.002,0.003 -1.31908,2.19797 -3.15294,4.47984 1.60372,0.0784 2.78102,0.24774 2.78102,0.24774 -0.7325,0.70035 -1.33837,1.2361 -2.10502,1.83187 2.82757,0.76894 5.18493,1.772 5.18493,1.772" />
      <path
         inkscape:connector-curvature="0"
         id="path56"
         style="fill:#1c428b;fill-opacity:1;fill-rule:nonzero;stroke:none;stroke-width:0.03527778"
         d="m -176.05374,174.33457 c -1.74153,-2.38998 -4.21219,-4.21679 -7.08524,-5.14911 0,0 0.22401,2.55411 0.0818,5.47999 1.34389,-0.87934 2.39411,-1.43393 2.39411,-1.43393 0,0 -0.20242,1.17026 -0.62348,2.71703 2.7161,-1.03046 5.23285,-1.61398 5.23285,-1.61398" />
      <path
         inkscape:connector-curvature="0"
         id="path58"
         style="fill:#1c428b;fill-opacity:1;fill-rule:nonzero;stroke:none;stroke-width:0.03527778"
         d="m -191.89593,169.18546 c 0,0 1.69177,1.94808 3.28539,4.3843 0.5653,-1.48951 1.09217,-2.56575 1.09217,-2.56575 0,0 0.52809,1.07624 1.09354,2.56575 1.59378,-2.43622 3.28585,-4.3843 3.28585,-4.3843 -1.38002,-0.44709 -2.85146,-0.68948 -4.37893,-0.68948 -1.52794,0 -2.99953,0.24239 -4.37802,0.68948" />
      <path
         inkscape:connector-curvature="0"
         id="path60"
         style="fill:#1c428b;fill-opacity:1;fill-rule:nonzero;stroke:none;stroke-width:0.03527778"
         d="m -198.98179,174.33548 c -1.7034,2.33715 -2.70845,5.21617 -2.70906,8.33145 0,0 2.35828,-1.00306 5.18463,-1.772 -0.7665,-0.59577 -1.3713,-1.13152 -2.1038,-1.83187 0,0 1.17776,-0.16934 2.78087,-0.24774 -1.83355,-2.28187 -3.1508,-4.47708 -3.15264,-4.47984" />
      <path
         inkscape:connector-curvature="0"
         id="path62"
         style="fill:#1c428b;fill-opacity:1;fill-rule:nonzero;stroke:none;stroke-width:0.03527778"
         d="m -198.98148,174.33457 c 0,0 2.51552,0.58352 5.23301,1.61398 -0.42153,-1.54677 -0.62394,-2.71703 -0.62394,-2.71703 0,0 1.05098,0.55459 2.39303,1.43393 -0.14102,-2.92588 0.0834,-5.47999 0.0834,-5.47999 -2.87336,0.93232 -5.3454,2.75913 -7.08555,5.14911" />
      <path
         inkscape:connector-curvature="0"
         id="path64"
         style="fill:#1c428b;fill-opacity:1;fill-rule:nonzero;stroke:none;stroke-width:0.03527778"
         d="m -155.13945,184.08692 h -0.12647 v 0.28985 h 0.12647 c 0.0975,0 0.15817,-0.0461 0.15817,-0.14638 0.002,-0.0971 -0.0606,-0.14347 -0.15817,-0.14347 z m 0.18481,0.71321 -0.19476,-0.32614 h -0.11423 v 0.32614 h -0.12647 v -0.81044 h 0.26259 c 0.14868,0 0.27775,0.0753 0.27775,0.2407 0,0.16812 -0.13397,0.22171 -0.16796,0.22906 l 0.209,0.34068 z m -0.18726,-1.01025 c -0.34114,0 -0.60588,0.26795 -0.60588,0.60633 0,0.34068 0.26474,0.60833 0.60588,0.60833 0.34068,0 0.60587,-0.26765 0.60587,-0.60833 0,-0.33838 -0.26519,-0.60633 -0.60587,-0.60633 z m 0,1.30974 c -0.39228,0 -0.70387,-0.30914 -0.70387,-0.70111 0,-0.39427 0.31159,-0.70341 0.70387,-0.70341 0.39182,0 0.70065,0.30914 0.70065,0.70111 0,0.39427 -0.30883,0.70341 -0.70065,0.70341" />
    </g>
  </g>
</svg>
