<?xml version="1.0" encoding="UTF-8"?>
<svg width="600" height="215" version="1.1" xmlns="http://www.w3.org/2000/svg">
 <path d="m36.233 123.4a134.85 134.85 0 0 1 19.601 8.1057c11.643 5.9688 12.232 11.937 13.559 21.664 1.3264 9.7268 2.6528 29.475 2.8738 36.844a265.79 265.79 0 0 1-28.517-22.106c-3.537-3.0949-7.3688-5.2319-7.3688-10.022-0.0737-1.6211-0.88426-29.696-0.14738-34.486zm204.63-51.508c5.0108 8.032-5.5266 10.98-13.632 9.1373-6.7793-1.5475-73.172-36.844-83.194-37.949-10.022-1.1053-69.635 35.812-76.194 39.35a27.191 27.191 0 0 1-27.191 0c-2.9475-1.4738-25.717-13.19-30.654-16.875 4.9371-4.6424 74.057-46.055 82.089-50.108 9.211-4.6424 14.738-7.3688 24.907-3.316 7.0741 2.6528 121.44 56.445 123.87 59.761zm-107.81-0.73689a10.39 10.39 0 1 1 10.39 10.39 10.39 10.39 0 0 1-10.39-10.39zm105.37 38.392c-1.179-4.5687-7.3688-5.2319-12.895-3.8318a104.71 104.71 0 0 1-32.791 4.3476 46.497 46.497 0 0 1-24.907-14.148c5.8214-6.7056 13.338-13.853 14.738-15.917a7.3688 7.3688 0 0 0 0.81057-9.5058c-2.0633-2.0633-5.7477-0.81057-9.5058 1.6948s-17.759 16.654-31.17 16.654c-13.411 0-28.002-14.222-31.686-16.654a9.8005 9.8005 0 0 0-11.201 0c-2.0633 2.0633 0 4.9371 2.5054 7.811s9.5058 9.5058 15.401 16.359a45.76 45.76 0 0 1-24.464 13.706 104.71 104.71 0 0 1-32.202-3.9792c-5.4529-1.4001-11.716-0.73688-12.895 3.8318-0.81057 2.8002 1.6211 5.8951 4.7897 7.9583s19.822 5.3792 24.464 12.453 5.3792 61.972 9.7268 64.182a16.875 16.875 0 0 0 11.716 0c4.2002-2.137 11.274-62.34 14.738-70.078a91.963 91.963 0 0 1 11.422-16.064c3.8318 17.98 8.032 84.963 12.085 86.363a22.106 22.106 0 0 0 11.569 0c3.9792-1.6948 8.3268-70.446 12.232-87.099a95.353 95.353 0 0 1 12.085 16.801c3.6107 7.3688 10.685 67.941 14.738 70.078a16.875 16.875 0 0 0 11.716 0c4.3476-1.8422 5.0845-57.035 9.7268-64.182s21.222-10.316 24.464-12.453 5.8951-5.5266 4.7897-8.3268zm-33.97-16.359a10.39 10.39 0 1 0-11.127 9.6532 10.39 10.39 0 0 0 11.127-9.6532zm-122.03 0a10.39 10.39 0 1 1 11.127 9.6532 10.39 10.39 0 0 1-11.127-9.6532z" fill="#111213"/>
 <path d="m554.41 165.48c0.73688 4.4213 2.8738 12.453 3.9792 16.138a138.24 138.24 0 0 0 3.2423-16.138h8.4005a194.68 194.68 0 0 1-9.7268 30.875 12.748 12.748 0 0 1-12.38 8.4004 10.832 10.832 0 0 1-2.6528 0v-7.3688a7.3688 7.3688 0 0 0 3.1686 0.81057 4.8634 4.8634 0 0 0 4.8634-4.495 25.791 25.791 0 0 0-2.4317-7.7373 128.81 128.81 0 0 1-6.0424-20.338zm-16.58-8.6215v8.6215h4.2002v5.4529h-4.2002v14.222c0 2.358 0.81057 3.6107 3.0949 3.6107h1.179v5.0845a18.569 18.569 0 0 1-5.674 0.81057 7.3688 7.3688 0 0 1-6.1161-2.7265 10.537 10.537 0 0 1-1.6211-6.6319v-14.369h-3.316v-5.4529h3.316v-8.6215zm-20.78-3.6107a5.0845 5.0845 0 1 1-5.0845 5.0845 5.0845 5.0845 0 0 1 5.0845-5.0845zm4.716 12.232v13.338a112.6 112.6 0 0 0 0.51582 15.18h-10.316a83.047 83.047 0 0 0 0.51582-11.569v-5.3792a83.562 83.562 0 0 0-0.51582-11.569zm-29.623 0a14.738 14.738 0 0 1 0.81057 2.5791 9.8742 9.8742 0 0 1 7.3688-3.2423 7.9583 7.9583 0 0 1 7.9583 8.9163v8.6952a83.047 83.047 0 0 0 0.51582 11.569h-10.316a83.047 83.047 0 0 0 0.51581-11.569v-7.7373c0-1.7685-0.73688-3.1686-2.4317-3.1686a2.8002 2.8002 0 0 0-3.0212 2.6528v8.2531a83.047 83.047 0 0 0 0.51581 11.569h-10.169a83.047 83.047 0 0 0 0.51582-11.569v-5.3792a83.562 83.562 0 0 0-0.51582-11.569zm-33.528-0.44213c0.81057 0 3.8318-0.44213 5.9687-0.44213 11.643 0 15.253 4.5687 15.253 12.159v7.3688a26.97 26.97 0 0 0 1.4738 9.9479h-8.99a4.5687 4.5687 0 0 1-0.95795-1.7685 10.685 10.685 0 0 1-6.3372 2.2106 8.4741 8.4741 0 0 1-9.0636-8.5478c0-5.1582 4.1265-8.6952 9.5058-10.464l4.716-1.4738a3.6844 3.6844 0 0 0-4.0528-3.6844 13.632 13.632 0 0 0-7.3688 2.9475zm12.232 14.001c-3.537 0.95795-5.7477 3.1686-5.7477 5.9688a3.2423 3.2423 0 0 0 3.0949 3.537 3.4633 3.4633 0 0 0 2.6528-1.2527zm-48.192-13.559a10.758 10.758 0 0 1 0.88426 2.5791 11.127 11.127 0 0 1 7.3688-3.2423 7.3688 7.3688 0 0 1 6.3372 3.6107 11.569 11.569 0 0 1 7.5162-3.3897c5.5266 0 7.3688 3.9055 7.3688 9.5058v8.1057a83.047 83.047 0 0 0 0.51582 11.569h-9.6532a96.826 96.826 0 0 0 0.44213-11.569v-8.032c0-1.9896-0.51581-3.4634-2.2843-3.4634a3.0949 3.0949 0 0 0-3.0212 3.4634v7.811a83.047 83.047 0 0 0 0.51582 11.569h-10.169a83.047 83.047 0 0 0 0.51582-11.569v-7.9583c0-1.8422-0.5895-3.316-2.2843-3.316a3.0212 3.0212 0 0 0-3.0212 3.0212v8.2531a83.047 83.047 0 0 0 0.51582 11.569h-10.169a83.047 83.047 0 0 0 0.51582-11.569v-5.3792a83.562 83.562 0 0 0-0.51582-11.569zm-21.738 28.517a14.738 14.738 0 0 1-0.81057-2.5791 9.8742 9.8742 0 0 1-6.9267 3.0949 7.9583 7.9583 0 0 1-7.9583-8.9163v-8.5478a83.562 83.562 0 0 0-0.51582-11.569h9.6532v18.938c0 2.2843 0.88426 3.6107 2.5791 3.6107a2.8738 2.8738 0 0 0 2.8738-3.0212v-7.9583a83.562 83.562 0 0 0-0.51582-11.569h10.169a83.562 83.562 0 0 0-0.51581 11.569v5.3792a83.047 83.047 0 0 0 0.51581 11.569zm-39.35-40.381v15.99h8.6215v-6.5582-9.4321h10.685a191 191 0 0 0-0.5895 20.191 191 191 0 0 0 0.5895 20.191h-11.274v-9.4321-8.2531h-8.6215v17.685h-10.095a191 191 0 0 0 0.5895-20.191 191 191 0 0 0-0.5895-20.191zm-39.276 11.864a24.98 24.98 0 0 1 0.73688 3.8318 9.3584 9.3584 0 0 1 7.3688-4.495h1.2527v7.3688h-1.6948c-4.3476 0-6.1898 3.9792-6.1898 10.169a83.047 83.047 0 0 0 0.51582 11.569h-10.685a83.047 83.047 0 0 0 0.51582-11.569v-5.3792a45.466 45.466 0 0 0-0.95794-11.569zm-11.938 14.296a13.338 13.338 0 1 1-26.454 0 13.338 13.338 0 1 1 26.454 0zm-16.432 0c0 6.7793 1.4738 9.211 3.1686 9.211s3.1686-2.4317 3.1686-9.211c0-6.7793-1.4738-9.2847-3.1686-9.2847s-3.1686 2.4317-3.1686 9.2847zm-9.6532-20.264a3.9792 3.9792 0 0 0-2.2106-0.5895 3.4633 3.4633 0 0 0-3.537 3.7581 7.9583 7.9583 0 0 0 0.58951 2.8002h4.2739v5.4529h-4.3476v11.495a83.047 83.047 0 0 0 0.51582 11.569h-10.169a83.047 83.047 0 0 0 0.51582-11.569v-11.495h-3.0949v-5.4529h3.0949v-2.2106a8.6952 8.6952 0 0 1 3.2423-7.7373 11.79 11.79 0 0 1 7.3688-2.4317 11.201 11.201 0 0 1 3.537 0.51582zm278.39-86.657v15.99h7.3688v9.8742h-7.9583v26.307c0 4.2739 1.5475 6.7056 5.7477 6.7056a12.748 12.748 0 0 0 2.2106 0v9.4321a34.412 34.412 0 0 1-10.537 1.5474 14.001 14.001 0 0 1-11.569-5.0845 19.38 19.38 0 0 1-3.0212-12.306v-26.601h-6.0424v-9.8742h6.0424v-15.99zm-67.646 15.548a99.995 99.995 0 0 1 10.98-0.81057c21.591 0 28.149 8.4005 28.149 22.106v13.338a49.592 49.592 0 0 0 2.7265 18.348h-16.58a9.3584 9.3584 0 0 1-1.7685-3.2423 19.085 19.085 0 0 1-11.716 4.0528 15.622 15.622 0 0 1-16.654-15.696c0-9.6532 7.3688-16.064 17.538-19.306l8.6215-2.8002a6.7056 6.7056 0 0 0-7.3688-6.7793 25.644 25.644 0 0 0-13.927 5.3792zm22.622 25.865c-6.5582 1.6948-10.611 5.7477-10.611 10.98a5.8951 5.8951 0 0 0 5.6003 6.4109 6.7056 6.7056 0 0 0 5.0108-2.2843zm-40.381-41.413v15.99h7.811v9.8742h-8.1057v26.307c0 4.2739 1.5474 6.7056 5.7477 6.7056a13.19 13.19 0 0 0 2.2106 0v9.4321a34.412 34.412 0 0 1-10.685 1.7685 14.001 14.001 0 0 1-11.274-5.0108 19.38 19.38 0 0 1-3.0212-12.306v-26.896h-6.0424v-9.8742h6.0424v-15.99zm-37.434-6.7056a9.4321 9.4321 0 1 1-9.3584 9.4321 9.3584 9.3584 0 0 1 9.3584-9.4321zm8.6215 22.696v24.612a222.91 222.91 0 0 0 0.88426 27.928h-18.864a164.62 164.62 0 0 0 0.88426-21.296v-10.022a163.44 163.44 0 0 0-0.88426-21.222zm-52.834-21.959v23.58a21.075 21.075 0 0 1 10.169-2.8738c9.8742 0 19.159 7.3688 19.159 26.233 0 14.738-8.032 28.812-22.843 28.812a21.149 21.149 0 0 1-13.411-5.2319l-5.895 5.0108-5.0108-3.0212a152.02 152.02 0 0 0 0.66319-21.296v-29.917c0-3.8318 0-8.1057-1.0316-21.296zm0 59.909c0 3.0212 1.179 5.4529 4.495 5.4529s7.3688-4.4213 7.3688-16.801c0-8.9163-2.2843-16.506-7.3688-16.506a3.9792 3.9792 0 0 0-4.2739 4.2739zm-64.993-38.392a98.374 98.374 0 0 1 10.98-0.81057c21.591 0 28.223 8.4005 28.223 22.106v13.338a50.919 50.919 0 0 0 2.6528 18.348h-16.654a10.98 10.98 0 0 1-1.7685-3.2423 18.864 18.864 0 0 1-11.643 4.0528 15.622 15.622 0 0 1-16.727-15.696c0-9.6532 7.3688-16.064 17.538-19.306l8.6952-2.8002a6.7793 6.7793 0 0 0-7.3688-6.7793 25.717 25.717 0 0 0-13.853 5.3792zm22.622 25.865c-6.5582 1.6948-10.611 5.7477-10.611 10.98a5.8951 5.8951 0 0 0 5.6003 6.4109 6.853 6.853 0 0 0 5.0108-2.2843zm-66.246-47.382c-0.44213 5.1582-0.51582 11.053-0.51582 17.464v12.011h15.843v-12.011c0-6.4109 0-12.306-0.51582-17.464h19.748a346.78 346.78 0 0 0-1.1053 37.286 346.33 346.33 0 0 0 1.1053 36.844h-19.748c0.44213-5.0845 0.51582-11.053 0.51582-17.39v-14.885h-7.8846-7.9583v15.253c0 6.3372 0 12.306 0.51582 17.39h-19.748a346.33 346.33 0 0 0 1.1053-36.844 346.78 346.78 0 0 0-1.1053-37.286zm294.46 85.552a8.6952 8.6952 0 1 1-8.8426 8.6952 8.6952 8.6952 0 0 1 8.8426-8.6952zm0 16.064a7.3688 7.3688 0 1 0-7.3688-7.3688 7.3688 7.3688 0 0 0 7.3688 7.3688zm-1.9159-2.358h-1.4738v-10.169h3.9055q3.537 0 3.537 2.8738a2.6528 2.6528 0 0 1-2.6528 2.8002l2.9475 4.495h-1.6211l-2.7265-4.4213h-1.9159zm0-5.674h2.4317c1.5475 0 2.0633-0.51582 2.0633-1.6948s-0.73688-1.5474-1.7685-1.5474h-2.7265z" fill="#111213"/>
</svg>
