<svg xmlns="http://www.w3.org/2000/svg" width="16" height="16" fill="currentColor" viewBox="0 0 16 16">
	<path d="M2.56 9.02v-.987h.85V6.075h-.844V5.5L3.587 5h.65v3.033h.778v.987zm3.604 0V6.06h-.045L4.952 6.83v-.94l1.18-.83h.973v3.96zm2.752 0c-.74 0-1.262-.485-1.262-1.157h.972c.052.226.292.39.594.39.39 0 .67-.249.67-.586 0-.336-.244-.555-.611-.555h-.473v-.764h.473c.302 0 .547-.205.547-.49 0-.286-.21-.481-.534-.481-.295 0-.527.18-.547.42h-.945c.027-.652.553-1.158 1.485-1.158.917 0 1.408.467 1.408 1.06 0 .493-.317.85-.853.954v.045c.658.083 1 .478 1 1.052 0 .664-.581 1.171-1.4 1.171M4 11h8v1H4z"/>
	<path d="M3.5 0a.5.5 0 0 1 .5.5V1h8V.5a.5.5 0 0 1 1 0V1h1a2 2 0 0 1 2 2v11a2 2 0 0 1-2 2H2a2 2 0 0 1-2-2V3a2 2 0 0 1 2-2h1V.5a.5.5 0 0 1 .5-.5M2 2a1 1 0 0 0-1 1v1h14V3a1 1 0 0 0-1-1zm13 3H1v9a1 1 0 0 0 1 1h12a1 1 0 0 0 1-1z"/>
</svg>
